<?xml version="1.0" encoding="UTF-8" standalone="no"?>
<svg
   class="logo-svg"
   height="500"
   viewBox="0 0 500 500"
   version="1.1"
   id="svg78"
   width="500"
   xmlns:xlink="http://www.w3.org/1999/xlink"
   xmlns="http://www.w3.org/2000/svg"
   xmlns:svg="http://www.w3.org/2000/svg">
  <defs
     id="defs82">
    <linearGradient
       id="swatch66"
       gradientTransform="matrix(-1,0,0,1,66.381284,-0.93218015)">
      <stop
         style="stop-color:#ffffff;stop-opacity:1;"
         offset="0"
         id="stop66" />
    </linearGradient>
    <linearGradient
       id="swatch65">
      <stop
         style="stop-color:#97ebf6;stop-opacity:1;"
         offset="0"
         id="stop65" />
    </linearGradient>
    <linearGradient
       id="swatch64"
       gradientTransform="matrix(-1,0,0,1,66.381284,-0.93218015)">
      <stop
         style="stop-color:#178391;stop-opacity:1;"
         offset="0"
         id="stop64" />
    </linearGradient>
    <linearGradient
       id="swatch63">
      <stop
         style="stop-color:#17afc2;stop-opacity:1;"
         offset="0"
         id="stop63" />
    </linearGradient>
    <linearGradient
       id="swatch62">
      <stop
         style="stop-color:#59c1ce;stop-opacity:1;"
         offset="0"
         id="stop62" />
    </linearGradient>
    <linearGradient
       id="swatch61">
      <stop
         style="stop-color:#97ebf6;stop-opacity:1;"
         offset="0"
         id="stop61" />
    </linearGradient>
    <linearGradient
       id="swatch19">
      <stop
         style="stop-color:#036d7a;stop-opacity:1;"
         offset="0"
         id="stop60" />
    </linearGradient>
    <linearGradient
       x1="17.507874"
       y1="18.087645"
       x2="18.445641"
       y2="18.087645"
       id="linearGradient59"
       gradientTransform="scale(0.80456945,1.2429008)"
       gradientUnits="userSpaceOnUse"
       spreadMethod="pad">
      <stop
         stop-color="#97EBF6"
         offset="0.01"
         id="stop58" />
      <stop
         stop-color="#59C1CE"
         offset="100%"
         id="stop59" />
    </linearGradient>
    <defs
       id="defs8">
      <circle
         id="path-1"
         cx="50"
         cy="50"
         r="50" />
      <linearGradient
         x1="17.507874"
         y1="18.087645"
         x2="18.445641"
         y2="18.087645"
         id="linearGradient-3"
         gradientTransform="scale(0.80456945,1.2429008)"
         gradientUnits="userSpaceOnUse"
         xlink:href="#linearGradient59"
         spreadMethod="pad">
        <stop
           stop-color="#97EBF6"
           offset="0%"
           id="stop3" />
        <stop
           stop-color="#59C1CE"
           offset="100%"
           id="stop5" />
      </linearGradient>
    </defs>
    <linearGradient
       xlink:href="#swatch19"
       id="linearGradient60"
       x1="0"
       y1="493.245"
       x2="13.510016"
       y2="493.245"
       gradientUnits="userSpaceOnUse" />
    <linearGradient
       xlink:href="#swatch61"
       id="linearGradient61"
       x1="13.510016"
       y1="493.245"
       x2="27.020033"
       y2="493.245"
       gradientUnits="userSpaceOnUse" />
    <linearGradient
       xlink:href="#swatch62"
       id="linearGradient62"
       x1="27.020033"
       y1="493.245"
       x2="40.530048"
       y2="493.245"
       gradientUnits="userSpaceOnUse" />
    <linearGradient
       xlink:href="#swatch63"
       id="linearGradient63"
       x1="486.48999"
       y1="493.245"
       x2="500"
       y2="493.245"
       gradientUnits="userSpaceOnUse" />
    <linearGradient
       xlink:href="#swatch64"
       id="linearGradient64"
       x1="472.97998"
       y1="493.245"
       x2="486.48999"
       y2="493.245"
       gradientUnits="userSpaceOnUse" />
    <linearGradient
       xlink:href="#swatch65"
       id="linearGradient65"
       x1="459.46997"
       y1="493.245"
       x2="472.97998"
       y2="493.245"
       gradientUnits="userSpaceOnUse" />
    <linearGradient
       xlink:href="#swatch66"
       id="linearGradient66"
       x1="445.95996"
       y1="493.245"
       x2="459.46997"
       y2="493.245"
       gradientUnits="userSpaceOnUse" />
  </defs>
  <g
     id="go"
     transform="scale(5)"
     style="display:inline;fill:none;fill-rule:evenodd">
    <g
       id="logo__go__circle"
       fill="#17afc2"
       fill-rule="nonzero"
       style="display:none">
      <circle
         id="a"
         cx="50"
         cy="50"
         r="50"
         style="fill:url(#swatch63);stroke:none" />
    </g>
    <g
       id="g226">
      <g
         id="logo__go__body"
         style="display:inline">
        <mask
           id="mask-2"
           fill="#ffffff">
          <use
             xlink:href="#path-1"
             id="use12"
             x="0"
             y="0"
             width="100%"
             height="100%" />
        </mask>
        <g
           id="g48"
           mask="url(#mask-2)">
          <g
             id="g338"
             style="display:inline;fill:#97ebf6;fill-opacity:1;fill-rule:evenodd;stroke:#178391;stroke-width:6.32058;stroke-dasharray:none;stroke-opacity:1"
             transform="matrix(0.15821321,0,0,0.15821321,16.003188,19.959455)">
            <path
               fill="none"
               stroke="#000000"
               stroke-width="6"
               stroke-linecap="round"
               stroke-linejoin="round"
               stroke-miterlimit="10"
               d="m 55.17,564.844 c -9.854,17.521 15.9,31.951 29.25,19.801 10.908,-9.928 19.518,-18.348 38.256,-21.098 -14.35,-5.906 -27,-13.281 -37.752,-21.871 -13.117,5.129 -23.736,12.47 -29.754,23.168 z"
               id="path6"
               style="display:inline;fill:url(#swatch65);fill-opacity:1;stroke:url(#swatch64);stroke-width:6.32058;stroke-dasharray:none;stroke-opacity:1" />
            <path
               fill="none"
               stroke="#000000"
               stroke-width="6"
               stroke-linecap="round"
               stroke-linejoin="round"
               stroke-miterlimit="10"
               d="m 60.871,584.57 c 0.9,-4.951 3.6,-13.275 11.7,-20.476"
               id="path14"
               style="fill:url(#swatch65);fill-opacity:1;stroke:url(#swatch64);stroke-width:6.32058;stroke-dasharray:none;stroke-opacity:1" />
          </g>
          <g
             id="g342"
             transform="matrix(0.15821321,0,0,0.15821321,16.003188,19.959455)"
             style="display:inline;fill:#97ebf6;fill-opacity:1;fill-rule:evenodd;stroke:#178391;stroke-width:6.32058;stroke-dasharray:none;stroke-opacity:1">
            <path
               fill="none"
               stroke="#000000"
               stroke-width="6"
               stroke-linecap="round"
               stroke-linejoin="round"
               stroke-miterlimit="10"
               d="m 353.745,579.846 c 11.037,14.283 38.46,1.312 30.443,-17.121 -5.267,-12.111 -15.218,-22.156 -27.677,-28.195 -8.158,7.618 -17.849,14.689 -29.308,20.867 12.68,6.005 18.893,14.549 26.542,24.449 z"
               id="path8"
               style="fill:url(#swatch65);fill-opacity:1;stroke:url(#swatch64);stroke-width:6.32058;stroke-dasharray:none;stroke-opacity:1" />
            <path
               fill="none"
               stroke="#000000"
               stroke-width="6"
               stroke-linecap="round"
               stroke-linejoin="round"
               stroke-miterlimit="10"
               d="m 376.05,582.961 c -0.026,-5.031 -1.304,-15.266 -8.866,-22.195"
               id="path16-3"
               style="fill:url(#swatch65);fill-opacity:1;stroke:url(#swatch64);stroke-width:6.32058;stroke-dasharray:none;stroke-opacity:1" />
          </g>
          <g
             id="g364"
             style="display:inline;fill-rule:nonzero;stroke-width:0.9;stroke-dasharray:none"
             transform="translate(16,20)">
            <path
               d="m 0.818,50.893 c 0.135,2.79 2.91,1.498 4.17,0.627 1.193,-0.828 1.542,-0.14 1.647,-1.773 0.068,-1.074 0.192,-2.147 0.13,-3.225 -1.804,-0.164 -3.768,0.267 -5.248,1.346 -0.762,0.556 -2.192,2.33 -0.7,3.025"
               id="Shape"
               stroke="#178391"
               stroke-width="1.5"
               fill="#97ebf5"
               style="fill:url(#swatch65);stroke:url(#swatch64);stroke-width:0.9;stroke-dasharray:none" />
            <path
               d="m 0.818,50.893 c 0.238,-0.134 1.268,-0.676 1.43,-1"
               id="path16"
               stroke="#178391"
               fill="#c6b198"
               style="fill:none;stroke:url(#swatch64);stroke-width:0.9;stroke-dasharray:none" />
          </g>
          <g
             id="g368"
             style="display:inline;fill-rule:nonzero;stroke-width:0.9;stroke-dasharray:none"
             transform="translate(16,20)">
            <path
               d="m 68.2,50.54 c -0.133,2.788 -2.91,1.497 -4.168,0.626 -1.194,-0.828 -1.543,-0.14 -1.648,-1.773 -0.068,-1.074 -0.192,-2.147 -0.13,-3.225 1.804,-0.164 3.768,0.267 5.248,1.346 0.762,0.556 2.192,2.33 0.7,3.025"
               id="path22"
               stroke="#178391"
               stroke-width="1.5"
               fill="#97ebf5"
               style="fill:url(#swatch65);stroke:url(#swatch64);stroke-width:0.9;stroke-linejoin:round;stroke-dasharray:none" />
            <path
               d="M 68.2,50.54 C 67.797,50.388 66.524,49.904 66.25,49.538"
               id="path24"
               stroke="#178391"
               fill="#c6b198"
               style="display:inline;fill:none;stroke:url(#swatch64);stroke-width:0.9;stroke-linecap:butt;stroke-dasharray:none" />
          </g>
          <g
             id="g2722"
             style="display:inline;fill:#97ebf5;fill-opacity:1;fill-rule:evenodd;stroke-width:1.00048;stroke-dasharray:none"
             transform="translate(16,20)">
            <g
               id="g5169">
              <path
                 d="m 54.51,5.662 c 8.423,-5.934 16.034,7.455 6.246,10.823 z"
                 id="path3289"
                 style="fill:url(#swatch65);fill-opacity:1;stroke:url(#swatch64);stroke-width:1.50073;stroke-dasharray:none;stroke-opacity:1" />
              <path
                 d="m 59.538,12.51 c 1.404,-0.745 2.434,-1.757 1.575,-3.386 -0.795,-1.508 -2.272,-1.344 -3.676,-0.6 l 2.1,3.986 z"
                 id="path2729"
                 style="fill:url(#swatch64);fill-opacity:1;stroke:none;stroke-width:1.00048;stroke-dasharray:none" />
            </g>
            <g
               id="g5165">
              <path
                 d="m 7.235,17.676 c -10.64,-3 -2.73,-16.58 5.816,-10.995 L 7.236,17.677 Z"
                 id="path2718"
                 style="display:inline;fill:url(#swatch65);fill-opacity:1;fill-rule:evenodd;stroke:url(#swatch64);stroke-width:1.50073;stroke-dasharray:none;stroke-opacity:1" />
              <path
                 d="M 7.68,13.926 C 6.275,13.181 5.245,12.169 6.104,10.541 6.899,9.034 8.376,9.197 9.78,9.941 l -2.1,3.986 z"
                 id="path2720"
                 style="fill:url(#swatch64);fill-opacity:1;stroke:none;stroke-width:1.00048;stroke-dasharray:none" />
            </g>
          </g>
          <path
             d="m 79.011,67.897 c 0.613,10.442 1.97,22.506 -2.86,32.184 -5.08,10.182 -17.775,12.743 -28.235,12.368 -8.215,-0.295 -18.14,-2.983 -22.776,-10.513 -5.44,-8.834 -2.866,-21.968 -2.47,-31.798 0.467,-11.643 -3.145,-23.32 0.668,-34.714 3.956,-11.82 14.624,-14.49 26.105,-15.4 10.653,0 20.64,1.527 25.845,11.794 4.672,11.507 3.01,23.916 3.723,36.079 z"
             id="path26"
             stroke="#178391"
             stroke-width="1.5"
             fill="#97ebf6"
             style="display:inline;fill:url(#swatch65);fill-rule:nonzero;stroke:url(#swatch64)" />
          <g
             id="g959"
             transform="translate(16,20)"
             style="fill-rule:nonzero">
            <path
               d="m 30.056583,30.713894 c -0.008,1.45 -0.214293,3.353224 0.06874,4.62 0.234381,0.626619 1.120388,0.856072 1.801875,0.927073 0.876824,0.09135 1.674717,-0.848437 1.850125,-1.383073 l 0.148541,-5.154786 -3.869285,0.991786 z"
               id="path435"
               style="display:inline;fill:url(#swatch66);fill-opacity:1;fill-rule:evenodd;stroke:url(#swatch64);stroke-linecap:round;stroke-linejoin:round;stroke-opacity:1" />
            <path
               d="m 37.517,30.75 c 0.008,1.45 0.338037,3.353224 0.055,4.62 -0.234381,0.626619 -1.120388,0.856072 -1.801875,0.927073 C 34.893301,36.388425 34.095408,35.448636 33.92,34.914 c -0.206635,-1.30078 0.04179,-3.54245 0.14,-5.227 l 3.457,1.064 z"
               id="path985"
               style="display:inline;fill:url(#swatch66);fill-opacity:1;fill-rule:evenodd;stroke:url(#swatch64);stroke-linecap:round;stroke-linejoin:round;stroke-opacity:1" />
          </g>
          <path
             d="m 46.43,45.247 c -2.13,0.182 -3.87,2.72 -2.762,4.728 1.465,2.66 4.736,-0.235 6.773,0.036 2.345,0.05 4.266,2.488 6.15,0.442 2.093,-2.275 -0.903,-4.492 -3.244,-5.482 l -6.917,0.277 z"
             id="path42"
             stroke="#178391"
             stroke-width="1.2"
             fill="#97ebf5"
             style="display:inline;fill:url(#swatch65);fill-rule:nonzero;stroke:url(#swatch64);stroke-width:1.19958;stroke-dasharray:none" />
          <path
             d="m 46.16,45.136 c -0.156,-3.698 6.873,-4.16 7.703,-1.065 0.828,3.09 -7.356,3.807 -7.702,1.066 -0.275,-2.19 0,0 0,0 z"
             id="path44"
             fill="#168391"
             style="display:inline;fill:url(#swatch64);fill-rule:nonzero;stroke:none" />
          <g
             id="g954"
             style="display:inline;fill:none;fill-rule:nonzero"
             transform="translate(16,20)">
            <path
               d="M 30.998,15.655 C 30.298,3.99 11.45327,6.2930219 13.551389,17.969829 15.957484,27.941768 31.582,25.395 30.998,15.655 Z"
               id="path1902"
               style="display:inline;fill:url(#swatch66);fill-opacity:1;fill-rule:evenodd;stroke:url(#swatch64);stroke-linecap:round;stroke-linejoin:round;stroke-opacity:1" />
            <g
               id="g326"
               style="display:inline;fill:none;fill-rule:nonzero">
              <ellipse
                 id="Oval"
                 fill="#178391"
                 cx="18.284"
                 cy="16.587999"
                 rx="2.6170001"
                 ry="2.8429999"
                 style="display:inline;fill:url(#swatch64);stroke:none" />
              <circle
                 id="ellipse31"
                 fill="#ffffff"
                 cx="19.475"
                 cy="17.23"
                 r="1"
                 style="display:inline;fill:url(#swatch66);stroke:none" />
            </g>
            <path
               d="m 35.383284,14.72282 c 0.7,-11.6650001 19.54473,-9.3619782 17.446611,2.314829 C 50.4238,27.009588 34.799284,24.46282 35.383284,14.72282 Z"
               id="path1"
               style="display:inline;fill:url(#swatch66);fill-opacity:1;fill-rule:evenodd;stroke:url(#swatch64);stroke-linecap:round;stroke-linejoin:round;stroke-opacity:1" />
            <g
               id="g319"
               style="display:inline;fill:none;fill-rule:nonzero">
              <ellipse
                 id="ellipse34"
                 fill="#178391"
                 cx="40.307999"
                 cy="15.88"
                 rx="2.573"
                 ry="2.8429999"
                 style="fill:url(#swatch64);stroke:none" />
              <circle
                 id="ellipse36"
                 fill="#ffffff"
                 cx="41.478001"
                 cy="16.521999"
                 r="1"
                 style="fill:url(#swatch66);stroke:none" />
            </g>
          </g>
        </g>
      </g>
      <g
         id="logo__go__shield"
         transform="translate(12,46)"
         stroke="#036d7a"
         style="display:inline">
        <path
           d="m 29,3.742 v 29.07 L 14.444,45 0,32.811 V 3.74 c 0.452,0.019 0.91,0.029 1.374,0.029 5.806,0 10.732,-1.5465504 13.07,-3.77555036 C 16.78,2.2214496 21.876,3.769 27.682,3.769 c 0.444,0 0.884,-0.01 1.318,-0.027 z"
           id="path12"
           fill="url(#linearGradient-3)"
           stroke-linecap="square"
           style="display:none;fill:url(#linearGradient-3);fill-rule:evenodd" />
        <g
           id="g12"
           style="display:inline">
          <path
             d="m 29,3.742 v 29.07 L 14.444,45 V -0.00655036 C 16.78,2.2214496 21.876,3.769 27.682,3.769 c 0.444,0 0.884,-0.01 1.318,-0.027 z"
             id="path11"
             fill="url(#linearGradient-3)"
             stroke-linecap="square"
             style="display:inline;fill:url(#swatch62);fill-opacity:1;fill-rule:evenodd;stroke:none" />
          <path
             d="M 14.444,45 0,32.811 V 3.74 c 0.452,0.019 0.91,0.029 1.374,0.029 5.806,0 10.732,-1.5465504 13.07,-3.77555036 z"
             id="path9"
             fill="url(#linearGradient-3)"
             stroke-linecap="square"
             style="display:inline;fill:url(#swatch61);fill-opacity:1;fill-rule:evenodd;stroke:none" />
          <path
             d="m 29,3.742 v 29.07 L 14.444,45 0,32.811 V 3.74 c 0.452,0.019 0.91,0.029 1.374,0.029 5.806,0 10.732,-1.5465504 13.07,-3.77555036 C 16.78,2.2214496 21.876,3.769 27.682,3.769 c 0.444,0 0.884,-0.01 1.318,-0.027 z"
             id="Combined-Shape"
             fill="url(#linearGradient-3)"
             stroke-linecap="square"
             style="display:inline;fill:none;fill-rule:evenodd;stroke:url(#swatch19);stroke-linecap:round;stroke-linejoin:round" />
        </g>
        <g
           id="bug"
           transform="translate(6,13)"
           style="display:inline">
          <g
             id="g1"
             style="display:inline;stroke-linecap:round;stroke-linejoin:round">
            <g
               id="g7"
               transform="matrix(-1,0,0,1,16.602794,0)"
               style="stroke-linecap:round;stroke-linejoin:round">
              <path
                 id="path10"
                 stroke-linecap="square"
                 d="m 4.779592,12.315814 -2.97,0.753 -1.184,1.708"
                 style="display:inline;fill:none;fill-rule:evenodd;stroke:url(#swatch19);stroke-linecap:round;stroke-linejoin:round" />
              <path
                 id="path18"
                 stroke-linecap="square"
                 d="m 12.461379,8.0339326 3.063943,-0.012723 1.573099,1.3581179"
                 style="display:inline;fill:none;fill-rule:evenodd;stroke:url(#swatch19);stroke-linecap:round;stroke-linejoin:round"
                 transform="matrix(-1,0,0,1,16.602794,0)" />
              <path
                 id="path7"
                 stroke-linecap="square"
                 d="m 4.7772007,3.6918375 -2.97,-0.753 -1.18399999,-1.708"
                 style="fill:none;stroke:url(#swatch19);stroke-linecap:round;stroke-linejoin:round" />
            </g>
            <g
               id="g3"
               style="stroke-linecap:round;stroke-linejoin:round">
              <path
                 id="path17"
                 stroke-linecap="square"
                 d="m 4.8028032,12.346591 -2.9700004,0.753 -1.18400003,1.708"
                 style="display:inline;fill:none;fill-rule:evenodd;stroke:url(#swatch19);stroke-linecap:round;stroke-linejoin:round" />
              <path
                 id="path19"
                 stroke-linecap="square"
                 d="m 12.448173,8.0288426 3.063961,-0.00763 1.570839,1.3607292"
                 style="display:inline;fill:none;fill-rule:evenodd;stroke:url(#swatch19);stroke-linecap:round;stroke-linejoin:round"
                 transform="matrix(-1,0,0,1,16.602794,0)" />
              <path
                 id="path60"
                 stroke-linecap="square"
                 d="m 4.7904059,3.6918375 -2.97,-0.753 -1.18399997,-1.708"
                 style="fill:none;stroke:url(#swatch19);stroke-linecap:round;stroke-linejoin:round" />
            </g>
          </g>
          <path
             d="M 10.55625,1.1902344 C 9.9732952,1.6330621 9.1875956,1.946875 8.3078125,1.946875 V 16.099219 A 4.1539998,8.0993204 0 0 0 12.462109,8 4.1539998,8.0993204 0 0 0 10.55625,1.1902344 Z"
             style="display:inline;fill:url(#swatch61);fill-opacity:1;fill-rule:evenodd;stroke:none"
             id="path15" />
          <path
             d="M 8.3078125,16.099219 V 1.946875 c -0.875329,0 -1.6587643,-0.3085869 -2.2398437,-0.7488281 A 4.1539998,8.0993204 0 0 0 4.1539063,8 4.1539998,8.0993204 0 0 0 8.3078125,16.099219 Z"
             style="display:inline;fill:url(#swatch62);fill-opacity:1;fill-rule:evenodd;stroke:none"
             id="path13" />
          <ellipse
             id="Oval-2"
             cx="8.3079996"
             cy="8"
             rx="4.1539998"
             ry="8.0993204"
             style="display:inline;fill:none;fill-rule:evenodd;stroke:url(#swatch19)" />
          <path
             d="m 8.308,1.947 -4e-7,14.15232"
             id="Line-6"
             stroke-linecap="square"
             style="display:inline;fill:none;stroke:url(#swatch19);stroke-linecap:butt" />
          <path
             d="M 8.3078125,-0.09921875 A 4.1539998,8.0993204 0 0 0 6.0679688,1.1980469 c 0.58108,0.4402417 1.3645138,0.7488281 2.2398437,0.7488281 0.879784,0 1.6654821,-0.3138124 2.2484375,-0.7566406 A 4.1539998,8.0993204 0 0 0 8.3078125,-0.09921875 Z"
             style="display:inline;fill:url(#swatch61);fill-opacity:1;stroke:url(#swatch19);stroke-linecap:round;stroke-linejoin:round"
             id="path2" />
        </g>
      </g>
    </g>
  </g>
  <g
     id="g2"
     style="display:none;fill:#17afc2;fill-opacity:1;fill-rule:evenodd">
    <rect
       style="fill:url(#linearGradient63);fill-opacity:1;stroke:none;stroke-width:4.60346;stroke-linecap:round;stroke-linejoin:miter;paint-order:markers fill stroke"
       id="rect2"
       width="13.510016"
       height="13.510016"
       x="486.48999"
       y="486.48999" />
    <rect
       style="fill:url(#linearGradient64);fill-opacity:1;fill-rule:evenodd;stroke:none;stroke-width:4.60346;stroke-linecap:round;stroke-linejoin:miter;paint-order:markers fill stroke"
       id="rect2-3"
       width="13.510016"
       height="13.510016"
       x="472.97998"
       y="486.48999" />
    <rect
       style="fill:url(#linearGradient65);fill-opacity:1;fill-rule:evenodd;stroke:none;stroke-width:4.60346;stroke-linecap:round;stroke-linejoin:miter;paint-order:markers fill stroke"
       id="rect2-3-2"
       width="13.510016"
       height="13.510016"
       x="459.46997"
       y="486.48999" />
    <rect
       style="display:inline;fill:url(#linearGradient66);fill-opacity:1;fill-rule:evenodd;stroke:none;stroke-width:4.60346;stroke-linecap:round;stroke-linejoin:miter;paint-order:markers fill stroke"
       id="rect19"
       width="13.510016"
       height="13.510016"
       x="445.95996"
       y="486.48999" />
    <rect
       style="fill:url(#linearGradient62);fill-opacity:1;fill-rule:evenodd;stroke:none;stroke-width:4.60346;stroke-linecap:round;stroke-linejoin:miter;paint-order:markers fill stroke"
       id="rect2-1"
       width="13.510016"
       height="13.510016"
       x="27.020033"
       y="486.48999" />
    <rect
       style="fill:url(#linearGradient61);fill-opacity:1;fill-rule:evenodd;stroke:none;stroke-width:4.60346;stroke-linecap:round;stroke-linejoin:miter;paint-order:markers fill stroke"
       id="rect2-1-7"
       width="13.510016"
       height="13.510016"
       x="13.510016"
       y="486.48999" />
    <rect
       style="display:inline;fill:url(#linearGradient60);fill-opacity:1;fill-rule:evenodd;stroke:none;stroke-width:4.60346;stroke-linecap:round;stroke-linejoin:miter;paint-order:markers fill stroke"
       id="rect2-1-7-9"
       width="13.510016"
       height="13.510016"
       x="0"
       y="486.48999" />
  </g>
</svg>
